<?xml version="1.0" encoding="utf-8"?>
<!-- Generator: Adobe Illustrator 27.5.0, SVG Export Plug-In . SVG Version: 6.00 Build 0)  -->
<svg version="1.1" xmlns="http://www.w3.org/2000/svg" xmlns:xlink="http://www.w3.org/1999/xlink" x="0px" y="0px"
	 viewBox="0 0 500 500" style="enable-background:new 0 0 500 500;" xml:space="preserve">
<g id="BACKGROUND">
	<rect style="fill:#FFFFFF;" width="500" height="500"/>
</g>
<g id="OBJECTS">
	<g>
		<path style="fill:#E4F2FF;" d="M411.436,225.807c-50.638-13.809-57.686,15.519-82.915,8.817
			c-8.814-2.342-18.328-3.424-37.23-13.851c-16.239-8.957-18.587-16.181-25.773-33.279c-7.623-18.138,3.813-44.805,2.616-60.966
			c-3.013-40.686-57.085-52.75-105.625-42.371c-21.336,4.562-50.446,12.425-72.942,32.154
			c-16.404,14.386-33.276,39.583-41.802,59.667c-27.538,64.86-26.726,143.337,6.794,198.286
			c22.906,37.548,56.604,59.883,85.727,72.998h267.518c32.273-19.217,58.789-60.991,65.173-96.941
			C479.875,311.474,472.279,242.4,411.436,225.807z"/>
		<ellipse style="fill:#E4F2FF;" cx="415.026" cy="101.677" rx="53.431" ry="48.94"/>
		<g>
			<g>
				<polygon style="fill:#92CDFE;" points="364.092,326.561 324.958,326.561 305.391,360.453 324.958,394.344 364.092,394.344 
					383.659,360.453 				"/>
				<polygon style="fill:none;stroke:#92CDFE;stroke-miterlimit:10;" points="256.692,160.219 226.404,160.219 211.26,186.449 
					226.404,212.68 256.692,212.68 271.836,186.449 				"/>
				<polygon style="fill:none;stroke:#92CDFE;stroke-miterlimit:10;" points="83.28,230.257 44.378,230.257 24.927,263.947 
					44.378,297.638 83.28,297.638 102.731,263.947 				"/>
				<polygon style="fill:none;stroke:#92CDFE;stroke-miterlimit:10;" points="383.422,60.15 342.594,60.15 322.18,95.508 
					342.594,130.867 383.422,130.867 403.836,95.508 				"/>
			</g>
			<g>
				<g>
					<polygon style="fill:none;stroke:#92CDFE;stroke-width:1.5;stroke-linecap:round;stroke-miterlimit:10;" points="
						430.99,176.985 404.283,161.617 377.62,177.061 377.664,207.874 404.371,223.242 431.034,207.798 					"/>
					<polyline style="fill:none;stroke:#92CDFE;stroke-width:1.5;stroke-linecap:round;stroke-miterlimit:10;" points="
						351.002,223.319 351.046,254.132 377.753,269.5 404.415,254.055 404.371,223.242 377.664,207.874 					"/>
					<polyline style="fill:none;stroke:#92CDFE;stroke-width:1.5;stroke-linecap:round;stroke-miterlimit:10;" points="
						457.741,223.166 431.034,207.798 404.371,223.242 404.415,254.055 431.122,269.423 457.785,253.979 					"/>
				</g>
				<g>
					<path style="fill:#92CDFE;" d="M407.783,163.631c-1.112,1.933-3.581,2.598-5.514,1.486c-1.933-1.112-2.599-3.581-1.486-5.514
						c1.112-1.933,3.581-2.599,5.514-1.486C408.23,159.229,408.895,161.698,407.783,163.631z"/>
					<path style="fill:#92CDFE;" d="M434.49,178.999c-1.112,1.933-3.581,2.598-5.514,1.486c-1.933-1.112-2.599-3.581-1.486-5.514
						c1.112-1.933,3.581-2.599,5.515-1.486C434.937,174.597,435.602,177.066,434.49,178.999z"/>
					<path style="fill:#92CDFE;" d="M381.12,179.076c-1.112,1.933-3.581,2.598-5.514,1.486c-1.933-1.112-2.599-3.581-1.486-5.514
						c1.112-1.933,3.581-2.599,5.514-1.486C381.568,174.673,382.233,177.142,381.12,179.076z"/>
					<path style="fill:#92CDFE;" d="M381.165,209.888c-1.112,1.933-3.581,2.599-5.515,1.486c-1.933-1.113-2.598-3.581-1.486-5.515
						c1.112-1.933,3.581-2.598,5.515-1.486C381.612,205.486,382.277,207.955,381.165,209.888z"/>
					<path style="fill:#92CDFE;" d="M434.534,209.812c-1.112,1.933-3.581,2.598-5.514,1.486c-1.933-1.112-2.599-3.581-1.486-5.515
						c1.113-1.933,3.581-2.598,5.515-1.486C434.981,205.41,435.647,207.879,434.534,209.812z"/>
					<path style="fill:#92CDFE;" d="M461.241,225.18c-1.112,1.933-3.581,2.598-5.515,1.486c-1.933-1.112-2.599-3.581-1.486-5.515
						c1.112-1.933,3.581-2.598,5.514-1.486C461.688,220.778,462.353,223.247,461.241,225.18z"/>
					<path style="fill:#92CDFE;" d="M461.285,255.993c-1.112,1.933-3.581,2.599-5.515,1.486c-1.933-1.112-2.599-3.581-1.486-5.514
						c1.113-1.933,3.581-2.599,5.515-1.486C461.732,251.591,462.398,254.06,461.285,255.993z"/>
					<path style="fill:#92CDFE;" d="M407.872,225.257c-1.112,1.933-3.581,2.598-5.514,1.486c-1.933-1.112-2.599-3.581-1.486-5.515
						c1.113-1.933,3.581-2.598,5.515-1.486S408.984,223.323,407.872,225.257z"/>
					<path style="fill:#92CDFE;" d="M434.623,271.437c-1.112,1.933-3.581,2.599-5.514,1.486c-1.933-1.112-2.599-3.581-1.486-5.514
						c1.112-1.933,3.581-2.599,5.515-1.486C435.07,267.035,435.735,269.504,434.623,271.437z"/>
					<path style="fill:#92CDFE;" d="M354.546,256.146c-1.112,1.933-3.581,2.598-5.514,1.486s-2.599-3.581-1.486-5.515
						c1.112-1.933,3.581-2.598,5.515-1.486C354.993,251.744,355.659,254.213,354.546,256.146z"/>
					<path style="fill:#92CDFE;" d="M381.253,271.514c-1.112,1.933-3.581,2.598-5.515,1.486s-2.598-3.581-1.486-5.515
						c1.112-1.933,3.581-2.598,5.514-1.486C381.7,267.112,382.366,269.581,381.253,271.514z"/>
					<path style="fill:#92CDFE;" d="M407.916,256.069c-1.112,1.933-3.581,2.598-5.515,1.486c-1.933-1.112-2.598-3.581-1.486-5.515
						c1.112-1.933,3.581-2.598,5.515-1.486C408.363,251.667,409.028,254.136,407.916,256.069z"/>
					<path style="fill:#92CDFE;" d="M354.502,225.333c-1.112,1.933-3.581,2.599-5.515,1.486c-1.933-1.113-2.598-3.581-1.486-5.515
						s3.581-2.598,5.515-1.486S355.615,223.4,354.502,225.333z"/>
				</g>
			</g>
			<g>
				<g>
					<path style="fill:none;stroke:#6FBBEF;stroke-width:4;stroke-linecap:round;stroke-miterlimit:10;" d="M205.118,59.29
						c0.349,73.206-109.768,73.731-109.419,146.936c0.349,73.203,110.466,72.678,110.815,145.881
						c0.045,9.397-1.73,17.596-4.858,24.906"/>
					<path style="fill:none;stroke:#B1DDFC;stroke-width:4;stroke-linecap:round;stroke-miterlimit:10;" d="M101.235,376.927
						c-0.144-0.338-0.285-0.678-0.424-1.02c-2.778-6.869-4.372-14.532-4.413-23.239c-0.349-73.213,109.768-73.738,109.419-146.952
						C205.467,132.503,95.35,133.028,95.001,59.815"/>
					<g>
						
							<line style="fill:none;stroke:#92CDFE;stroke-width:2;stroke-linecap:round;stroke-miterlimit:10;" x1="140.134" y1="307.737" x2="169.282" y2="307.598"/>
						
							<line style="fill:none;stroke:#92CDFE;stroke-width:2;stroke-linecap:round;stroke-miterlimit:10;" x1="121.374" y1="326.621" x2="181.291" y2="326.335"/>
						
							<line style="fill:none;stroke:#92CDFE;stroke-width:2;stroke-linecap:round;stroke-miterlimit:10;" x1="115.651" y1="343.247" x2="193.65" y2="342.875"/>
						
							<line style="fill:none;stroke:#92CDFE;stroke-width:2;stroke-linecap:round;stroke-miterlimit:10;" x1="115.733" y1="360.453" x2="193.732" y2="360.081"/>
					</g>
					<g>
						
							<line style="fill:none;stroke:#92CDFE;stroke-width:2;stroke-linecap:round;stroke-miterlimit:10;" x1="135.434" y1="161.914" x2="164.582" y2="161.775"/>
						
							<line style="fill:none;stroke:#92CDFE;stroke-width:2;stroke-linecap:round;stroke-miterlimit:10;" x1="135.85" y1="249.36" x2="164.999" y2="249.221"/>
						
							<line style="fill:none;stroke:#92CDFE;stroke-width:2;stroke-linecap:round;stroke-miterlimit:10;" x1="120.917" y1="230.808" x2="180.834" y2="230.523"/>
						
							<line style="fill:none;stroke:#92CDFE;stroke-width:2;stroke-linecap:round;stroke-miterlimit:10;" x1="120.674" y1="179.798" x2="180.591" y2="179.512"/>
						
							<line style="fill:none;stroke:#92CDFE;stroke-width:2;stroke-linecap:round;stroke-miterlimit:10;" x1="114.951" y1="196.424" x2="192.95" y2="196.052"/>
						
							<line style="fill:none;stroke:#92CDFE;stroke-width:2;stroke-linecap:round;stroke-miterlimit:10;" x1="115.033" y1="213.63" x2="193.032" y2="213.258"/>
					</g>
					<g>
						
							<line style="fill:none;stroke:#92CDFE;stroke-width:2;stroke-linecap:round;stroke-miterlimit:10;" x1="135.159" y1="104.359" x2="164.308" y2="104.22"/>
						
							<line style="fill:none;stroke:#92CDFE;stroke-width:2;stroke-linecap:round;stroke-miterlimit:10;" x1="120.226" y1="85.807" x2="180.143" y2="85.522"/>
						<path style="fill:none;stroke:#232F63;stroke-width:2;stroke-linecap:round;stroke-miterlimit:10;" d="M192.341,68.257"/>
						<path style="fill:none;stroke:#232F63;stroke-width:2;stroke-linecap:round;stroke-miterlimit:10;" d="M114.341,68.629"/>
					</g>
				</g>
				<g>
					<g>
						<g>
							<path style="fill:#ACDDFE;" d="M203.402,127.877c-0.015-0.059-13.261-1.535-19.409,7.169
								c-6.961,9.855-3.85,17.687-3.85,17.687l0.42,0.386c0,0,8.062,2.451,17.306-5.305
								C206.032,140.965,203.462,127.887,203.402,127.877z"/>
							<g>
								
									<line style="fill:none;stroke:#6FBBEF;stroke-width:0.5;stroke-linecap:round;stroke-miterlimit:10;" x1="202.005" y1="128.872" x2="180.747" y2="152.248"/>
								
									<line style="fill:none;stroke:#6FBBEF;stroke-width:0.5;stroke-linecap:round;stroke-miterlimit:10;" x1="189.584" y1="132.171" x2="189.809" y2="142.283"/>
								
									<line style="fill:none;stroke:#6FBBEF;stroke-width:0.5;stroke-linecap:round;stroke-miterlimit:10;" x1="201.598" y1="137.227" x2="193.645" y2="138.065"/>
							</g>
						</g>
						<g>
							<path style="fill:#6FBBEF;" d="M205.006,153.015c0.025-0.036-5.413-7.996-13.086-7.263c-8.688,0.83-11.516,6.23-11.516,6.23
								l-0.014,0.413c0,0,2.459,5.577,11.072,6.989C199.068,160.63,205.028,153.053,205.006,153.015z"/>
							<g>
								
									<line style="fill:none;stroke:#FFFFFF;stroke-width:0.5;stroke-linecap:round;stroke-miterlimit:10;" x1="202.221" y1="152.779" x2="180.556" y2="152.143"/>
								
									<line style="fill:none;stroke:#FFFFFF;stroke-width:0.5;stroke-linecap:round;stroke-miterlimit:10;" x1="197.267" y1="147.829" x2="193.46" y2="152.521"/>
								
									<line style="fill:none;stroke:#FFFFFF;stroke-width:0.5;stroke-linecap:round;stroke-miterlimit:10;" x1="189.358" y1="147.65" x2="185.551" y2="152.343"/>
							</g>
						</g>
					</g>
					<g>
						<g>
							<path style="fill:#ACDDFE;" d="M65.378,174.251c0.02-0.077,17.3-2.002,25.321,9.353c9.082,12.858,5.023,23.074,5.023,23.074
								l-0.548,0.504c0,0-10.518,3.197-22.578-6.921C61.946,191.326,65.299,174.265,65.378,174.251z"/>
							<g>
								
									<line style="fill:none;stroke:#6FBBEF;stroke-width:0.5;stroke-linecap:round;stroke-miterlimit:10;" x1="67.201" y1="175.55" x2="94.934" y2="206.046"/>
								
									<line style="fill:none;stroke:#6FBBEF;stroke-width:0.5;stroke-linecap:round;stroke-miterlimit:10;" x1="83.405" y1="179.853" x2="83.111" y2="193.046"/>
								
									<line style="fill:none;stroke:#6FBBEF;stroke-width:0.5;stroke-linecap:round;stroke-miterlimit:10;" x1="67.732" y1="186.449" x2="78.107" y2="187.543"/>
							</g>
						</g>
						<g>
							<path style="fill:#6FBBEF;" d="M63.829,207.262c-0.033-0.047,7.062-10.432,17.072-9.476
								c11.335,1.083,15.024,8.128,15.024,8.128l0.018,0.538c0,0-3.208,7.276-14.444,9.118
								C71.575,217.197,63.799,207.312,63.829,207.262z"/>
							<g>
								
									<line style="fill:none;stroke:#FFFFFF;stroke-width:0.5;stroke-linecap:round;stroke-miterlimit:10;" x1="67.461" y1="206.954" x2="95.726" y2="206.125"/>
								
									<line style="fill:none;stroke:#FFFFFF;stroke-width:0.5;stroke-linecap:round;stroke-miterlimit:10;" x1="73.925" y1="200.496" x2="78.891" y2="206.619"/>
								
									<line style="fill:none;stroke:#FFFFFF;stroke-width:0.5;stroke-linecap:round;stroke-miterlimit:10;" x1="84.243" y1="200.264" x2="89.209" y2="206.386"/>
							</g>
						</g>
					</g>
					<g>
						<path style="fill:#ACDDFE;" d="M79.657,102.796c-0.032,0.047,7.073,10.132,16.877,9.052c11.101-1.222,14.62-8.184,14.62-8.184
							l0.01-0.528c0,0-3.248-7.091-14.295-8.739C87.113,92.943,79.627,102.748,79.657,102.796z"/>
						<g>
							
								<line style="fill:none;stroke:#6FBBEF;stroke-width:0.5;stroke-linecap:round;stroke-miterlimit:10;" x1="81.204" y1="103.154" x2="110.447" y2="103.544"/>
							
								<line style="fill:none;stroke:#6FBBEF;stroke-width:0.5;stroke-linecap:round;stroke-miterlimit:10;" x1="91.111" y1="109.738" x2="97.981" y2="103.378"/>
							
								<line style="fill:none;stroke:#6FBBEF;stroke-width:0.5;stroke-linecap:round;stroke-miterlimit:10;" x1="87.244" y1="98.31" x2="92.704" y2="103.308"/>
						</g>
					</g>
				</g>
			</g>
		</g>
		<g>
			<g>
				<g>
					<g>
						<path style="fill:#FFFFFF;stroke:#16004D;stroke-linecap:round;stroke-miterlimit:10;" d="M292.631,191.605
							c0,0,32.32,9.346,57.406,29.913c25.086,20.567,31.547,76.929,18.516,79.535c-13.032,2.606-96.344-17.375-96.344-17.375
							L292.631,191.605z"/>
						<path style="fill:#FFFFFF;stroke:#16004D;stroke-linecap:round;stroke-miterlimit:10;" d="M237.663,191.913
							c-44.495,9.397-79.355,67.765-80.332,111.746c0,0,6.842,10.751,14.009,11.729c7.167,0.977,70.208-8.145,70.208-8.145
							l32.742-73.35l4.561-31.88L237.663,191.913z"/>
					</g>
					<g>
						<path style="fill:#FFFFFF;" d="M351.828,447.263l-12.814-190.388c0-37.976-30.334-68.762-67.754-68.762h-11.75
							c-37.419,0-67.754,30.786-67.754,68.762l-13.575,190.388H351.828z"/>
						<g>
							<path style="fill:#2E4ECC;stroke:#16004D;stroke-miterlimit:10;" d="M266.905,285.415l31.676-91.464
								c-8.359-3.744-17.597-5.839-27.321-5.839h-11.75c-10.912,0-21.213,2.633-30.343,7.284L266.905,285.415z"/>
							<line style="fill:none;stroke:#16004D;stroke-miterlimit:10;" x1="266.905" y1="285.415" x2="266.905" y2="447.008"/>
							<g>
								<circle style="fill:none;stroke:#16004D;stroke-miterlimit:10;" cx="259.328" cy="340.574" r="3.033"/>
								<circle style="fill:none;stroke:#16004D;stroke-miterlimit:10;" cx="259.328" cy="392.144" r="3.033"/>
							</g>
							<g>
								<polyline style="fill:none;stroke:#16004D;stroke-linecap:round;stroke-miterlimit:10;" points="224.838,212.438 
									224.838,269.451 239.748,263.985 232.293,283.786 260.15,317.687 								"/>
								<polyline style="fill:none;stroke:#16004D;stroke-linecap:round;stroke-miterlimit:10;" points="307.521,212.438 
									307.521,269.451 292.611,263.985 300.066,283.786 272.208,317.687 								"/>
							</g>
						</g>
						<polyline style="fill:none;stroke:#16004D;stroke-linecap:round;stroke-miterlimit:10;" points="189,295.529 178.181,447.263 
							351.828,447.263 341.109,287.997 						"/>
					</g>
				</g>
				<g>
					<g>
						<path style="fill:#161522;" d="M233.787,147.946c-0.163-0.485-9.918-15.482-10.498-28.55
							c-0.58-13.068,4.675-37.675,41.919-38.853c13.032-0.412,40.814,1.285,40.704,32.609c-0.11,31.588-14.821,49.647-18.124,51.372
							C284.484,166.25,242.577,173.995,233.787,147.946z"/>
						<g>
							<g>
								<path style="fill:#A66957;" d="M309.463,145.942c-0.107,4.95-4.238,8.875-9.229,8.768c-4.99-0.107-8.949-4.207-8.842-9.157
									c0.107-4.95,4.238-8.875,9.229-8.767C305.61,136.893,309.569,140.992,309.463,145.942z"/>
								<g>
									<g>
										<path style="fill:#7F4040;" d="M296.139,146.826c-0.008-0.192,0.003-0.385,0.018-0.576
											c0.007-0.091,0.017-0.183,0.027-0.274c0.019-0.185-0.011,0.056,0.001-0.017c0.011-0.065,0.02-0.13,0.031-0.195
											c0.043-0.254,0.1-0.505,0.172-0.752c0.038-0.129,0.079-0.257,0.125-0.383c0.024-0.065,0.05-0.129,0.075-0.194
											c0.012-0.032,0.049-0.107-0.014,0.032c0.021-0.045,0.04-0.091,0.061-0.136c0.128-0.275,0.283-0.533,0.455-0.782
											c0.1-0.145-0.045,0.044,0.07-0.091c0.05-0.059,0.1-0.118,0.153-0.176c0.119-0.129,0.247-0.249,0.38-0.363
											c0.002-0.002,0.128-0.102,0.052-0.043c-0.076,0.059,0.054-0.039,0.056-0.04c0.069-0.048,0.139-0.096,0.211-0.141
											c0.165-0.103,0.337-0.193,0.515-0.272c-0.107,0.047-0.018,0.007,0.004-0.001c0.07-0.027,0.141-0.054,0.213-0.078
											c0.102-0.035,0.206-0.065,0.31-0.093c0.109-0.029,0.219-0.054,0.33-0.075c0.138-0.027,0.227-0.04,0.284-0.046
											c0.605-0.066,1.215-0.04,1.818,0.036c0.336,0.042,0.625-0.317,0.625-0.625c0-0.373-0.289-0.583-0.625-0.625
											c-1.851-0.232-3.876,0.106-5.149,1.586c-0.854,0.993-1.268,2.246-1.408,3.532c-0.029,0.262-0.049,0.529-0.038,0.792
											C294.923,147.627,296.173,147.631,296.139,146.826L296.139,146.826z"/>
									</g>
								</g>
							</g>
							<g>
								<path style="fill:#A66957;" d="M219.699,145.469c-0.107,4.949,3.852,9.049,8.842,9.157c4.99,0.107,9.122-3.818,9.229-8.768
									c0.107-4.949-3.852-9.049-8.843-9.157C223.938,136.594,219.806,140.519,219.699,145.469z"/>
								<g>
									<g>
										<path style="fill:#7F4040;" d="M234.221,146.952c0.063-0.742-0.045-1.533-0.231-2.249
											c-0.371-1.424-1.254-2.721-2.606-3.368c-1.097-0.525-2.323-0.644-3.524-0.545c-0.336,0.028-0.625,0.267-0.625,0.625
											c0,0.317,0.287,0.653,0.625,0.625c0.54-0.044,1.086-0.052,1.624,0.016c-0.117-0.015,0.091,0.015,0.092,0.015
											c0.042,0.007,0.083,0.014,0.125,0.022c0.111,0.021,0.22,0.045,0.329,0.073c0.213,0.054,0.422,0.121,0.626,0.204
											c-0.12-0.049,0.11,0.051,0.145,0.069c0.077,0.038,0.154,0.079,0.229,0.122c0.073,0.042,0.144,0.086,0.214,0.132
											c0.041,0.027,0.081,0.056,0.122,0.084c0.026,0.019,0.053,0.038,0.079,0.057c-0.056-0.044-0.067-0.052-0.031-0.024
											c0.127,0.104,0.25,0.213,0.365,0.331c0.053,0.054,0.105,0.11,0.154,0.168c0.029,0.034,0.057,0.07,0.087,0.103
											c0.085,0.094-0.066-0.098,0.012,0.014c0.182,0.261,0.348,0.525,0.482,0.815c0.015,0.032,0.028,0.064,0.043,0.095
											c0.038,0.083-0.056-0.146-0.007-0.016c0.024,0.064,0.05,0.126,0.073,0.191c0.052,0.143,0.098,0.288,0.138,0.434
											c0.07,0.253,0.121,0.509,0.163,0.768c0.005,0.033,0.008,0.067,0.014,0.1c-0.034-0.183-0.014-0.111-0.01-0.069
											c0.006,0.063,0.015,0.125,0.021,0.187c0.01,0.104,0.018,0.208,0.024,0.313c0.013,0.236,0.019,0.475-0.001,0.71
											c-0.029,0.337,0.308,0.625,0.625,0.625C233.958,147.577,234.192,147.29,234.221,146.952L234.221,146.952z"/>
									</g>
								</g>
							</g>
						</g>
						<g>
							<path style="fill:#A66957;" d="M293.115,152.624c-0.013,11.045-9.061,20.072-20.106,20.059l-16.946-0.02
								c-11.046-0.013-20.072-9.061-20.059-20.106l0.042-35.471c0.013-11.045,9.061-20.072,20.106-20.059l16.946,0.02
								c11.045,0.013,20.072,9.061,20.059,20.106L293.115,152.624z"/>
						</g>
						<path style="fill:#A66957;" d="M270.646,204.079h-12.131c-6.163,0-11.16-4.996-11.16-11.16v-17.753
							c0-6.163,4.996-11.16,11.16-11.16h12.131c6.163,0,11.16,4.996,11.16,11.16v17.753
							C281.806,199.083,276.81,204.079,270.646,204.079z"/>
						<g>
							<g>
								<path style="fill:#9E5656;" d="M251.498,147.598c-0.305,3.962-3.765,6.926-7.727,6.621
									c-3.962-0.305-6.926-3.764-6.621-7.727c0.305-3.962,3.765-6.926,7.727-6.621
									C248.839,140.177,251.803,143.636,251.498,147.598z"/>
								<path style="fill:#9E5656;" d="M290.85,147.644c-0.305,3.962-3.765,6.926-7.727,6.621c-3.962-0.305-6.926-3.765-6.621-7.727
									c0.305-3.962,3.765-6.926,7.727-6.621C288.191,140.223,291.155,143.682,290.85,147.644z"/>
							</g>
							<path style="fill:#161522;" d="M293.151,127.536c-0.789,1.876-1.243,13.015-4.451,19.633
								c-1.78,3.67-10.113,7.548-14.484,2.345c-4.796-5.709-11.587-5.214-16.372-0.965c-4.785,4.25-11.526,8.103-16.548,1.936
								c-2.879-3.535-4.717-26.783-4.717-26.783s-0.201,0.383-0.535,1.033l-0.033,28.38c-0.014,12.017,9.012,21.859,20.057,21.872
								l16.946,0.02c11.045,0.013,20.094-9.808,20.108-21.825L293.151,127.536z"/>
							<path style="fill:#FFFFFF;" d="M260.021,151.842c0.35,2.798,2.708,4.972,5.601,4.976c2.893,0.003,5.257-2.165,5.613-4.962
								L260.021,151.842z"/>
							<g>
								<g>
									<path style="fill:#7F4040;" d="M263.728,130.595c-0.933,4.023-1.83,8.054-2.69,12.094c-0.087,0.407,0.18,0.773,0.603,0.791
										c1.783,0.075,3.565,0.156,5.348,0.242c0.804,0.039,0.802-1.211,0-1.25c-1.782-0.086-3.565-0.167-5.348-0.242
										c0.201,0.264,0.402,0.527,0.603,0.791c0.86-4.039,1.757-8.071,2.69-12.094C265.115,130.145,263.91,129.811,263.728,130.595
										L263.728,130.595z"/>
								</g>
							</g>
							<path style="fill:#161522;" d="M249.546,134.389c0.026,1.466-1.141,2.676-2.607,2.702c-1.466,0.026-2.676-1.141-2.702-2.607
								c-0.026-1.466,1.141-2.676,2.607-2.702C248.31,131.756,249.52,132.923,249.546,134.389z"/>
							<path style="fill:#161522;" d="M285.438,134.342c0.026,1.466-1.141,2.676-2.607,2.702c-1.466,0.026-2.676-1.141-2.702-2.607
								c-0.026-1.466,1.141-2.676,2.607-2.702C284.202,131.709,285.411,132.876,285.438,134.342z"/>
							<g>
								<g>
									<path style="fill:#161522;" d="M243.08,132.261c2.483-0.151,4.965-0.302,7.448-0.454c0.782-0.048,1.538-0.656,1.5-1.5
										c-0.035-0.772-0.661-1.551-1.5-1.5c-2.483,0.151-4.965,0.303-7.448,0.454c-0.782,0.048-1.538,0.656-1.5,1.5
										C241.615,131.533,242.241,132.312,243.08,132.261L243.08,132.261z"/>
								</g>
							</g>
							<g>
								<g>
									<path style="fill:#161522;" d="M278.56,130.253c2.681,0.681,5.362,1.362,8.043,2.043c0.759,0.193,1.663-0.247,1.845-1.048
										c0.177-0.78-0.234-1.639-1.048-1.845c-2.681-0.681-5.362-1.362-8.043-2.043c-0.759-0.193-1.663,0.247-1.845,1.048
										C277.335,129.187,277.746,130.046,278.56,130.253L278.56,130.253z"/>
								</g>
							</g>
						</g>
						<path style="fill:#161522;" d="M279.221,79.844c-4.683-1.418-8.846-2.062-11.409-2.126
							c-8.653-0.213-37.382,1.557-43.908,21.062c-6.526,19.505,2.536,36.029,2.536,36.029l0.035-4.826
							c2.603,2.943,11.407,8.477,11.407,8.477l1.122-9.441c0,0,35.348-0.073,37.112-18.871c0.06-0.635-1.434,14.863,10.96,18.896
							c0,0-3.04-7.301-1.509-12.996c0,0,0.176,11.297,8.208,14.146l1.217,8.918c0,0,3.823-3.88,5.325-11.969
							c0.56,7.753,0.56,7.753,0.56,7.753s9.367-9.496,6.022-29.283C304.42,90.948,290.352,83.214,279.221,79.844"/>
					</g>
				</g>
				<g>
					<g>
						<path style="fill:#92CDFE;" d="M278.389,121.325c0,0,0.326,5.756,4.887,8.905c4.561,3.149,11.946,10.1,15.421,16.832
							c3.475,6.733,6.95,18.679,11.403,21.611c4.452,2.932,11.728-1.195,11.728-1.195s-0.543-14.552,0-18.787
							c0.543-4.235-14.009-15.747-14.009-15.747s-10.208-7.276-12.272-9.882C293.484,120.456,279.693,110.465,278.389,121.325z"/>
						<g>
							<polygon style="fill:#A66957;" points="323.023,215.607 312.835,181.535 341.669,174.082 353.892,206.491 							"/>
							<g>
								<path style="fill:#FFFFFF;stroke:#16004D;stroke-linecap:round;stroke-miterlimit:10;" d="M312.835,209.469l48.196-11.692
									c0,0,51.801,86.335,27.366,109.14c-22.805,21.285-48.434,6.299-55.276-6.19C321.502,279.515,316.14,236.401,312.835,209.469
									z"/>
								
									<line style="fill:none;stroke:#16004D;stroke-linecap:round;stroke-miterlimit:10;" x1="314.704" y1="224.75" x2="368.634" y2="211.757"/>
							</g>
						</g>
						<path style="fill:#92CDFE;" d="M277.267,115.468c0,0-0.995-1.582,0.512-3.699s13.208-6.407,23.633-6.516
							c10.425-0.109,10.968,2.389,14.009,4.887c3.041,2.498,11.185,10.087,13.032,11.831c1.846,1.744,3.584,8.043,3.692,12.604
							c0.109,4.561,12.38,43.982,12.38,43.982l-30.516,9.014l-11.314-31.395c0,0-0.632-13.999-3.781-18.777
							c-3.149-4.778-12.814-15.427-12.814-15.427l-1.561-4.153C284.539,117.817,278.641,118.516,277.267,115.468z"/>
						<g>
							<g>
								<path style="fill:#50B97A;" d="M273.516,142.146v20.963c0,4.578,3.711,8.289,8.289,8.289c4.578,0,8.289-3.711,8.289-8.289
									v-20.963H273.516z"/>
								
									<rect x="273.516" y="94.876" style="fill:#EB3341;stroke:#16004D;stroke-linecap:round;stroke-miterlimit:10;" width="16.578" height="13.602"/>
								<path style="fill:none;stroke:#16004D;stroke-linecap:round;stroke-miterlimit:10;" d="M273.516,104.419v58.69
									c0,4.578,3.711,8.289,8.289,8.289c4.578,0,8.289-3.711,8.289-8.289v-58.69H273.516z"/>
							</g>
							<g>
								<path style="fill:#92CDFE;" d="M312.061,133.841l21.548,7.575c-0.875-3.365-1.44-5.88-1.463-6.842
									c-0.109-4.561-1.846-10.86-3.692-12.604c-1.846-1.744-9.991-9.333-13.032-11.831c-3.041-2.498-3.584-4.995-14.009-4.887
									c-10.425,0.109-22.127,4.398-23.633,6.516s-0.512,3.699-0.512,3.699c1.375,3.048,7.272,2.349,7.272,2.349l3.295-0.402
									c0,0-0.342,1.471,0.33,2.743c0.657,1.245,3.706,0.896,5.179,1.645c4.67,2.374,6.406,4.228,8.138,6.855
									C302.141,129.661,311.604,132.239,312.061,133.841z"/>
								<g>
									<g>
										<path style="fill:none;stroke:#16004D;stroke-linecap:round;stroke-miterlimit:10;" d="M321.231,120.565
											c0,0-10.099-0.652-15.964,1.303c-5.864,1.955-5.864,5.701-2.932,6.516c2.932,0.814,13.032,0.326,14.498,1.629
											c1.466,1.303,4.235,5.05,4.398,6.842"/>
										<path style="fill:none;stroke:#16004D;stroke-linecap:round;stroke-miterlimit:10;" d="M313.168,110.139
											c0,0-14.009,0.733-19.548,2.688c-5.538,1.955-6.609,4.648-5.457,6.923c1.629,3.217,13.696,2.187,19.464,1.503"/>
										<path style="fill:none;stroke:#16004D;stroke-linecap:round;stroke-miterlimit:10;" d="M287.834,117.414
											c0,0-11.182,2.173-10.856-3.583"/>
									</g>
									<g>
										<path style="fill:none;stroke:#16004D;stroke-linecap:round;stroke-miterlimit:10;" d="M316.833,160.963
											c0,0-7.819-2.389-9.013-11.403c-1.195-9.014,0-15.312,0-15.312"/>
										<path style="fill:none;stroke:#16004D;stroke-linecap:round;stroke-miterlimit:10;" d="M295.144,127.058
											c0,0,6.369,5.852,12.28,8.899"/>
									</g>
									<g>
										
											<line style="fill:none;stroke:#16004D;stroke-linecap:round;stroke-miterlimit:10;" x1="314.009" y1="187.569" x2="344.525" y2="178.556"/>
										
											<line style="fill:none;stroke:#16004D;stroke-linecap:round;stroke-miterlimit:10;" x1="311.835" y1="181.535" x2="342.717" y2="172.688"/>
									</g>
								</g>
							</g>
						</g>
					</g>
					<g>
						<g>
							<polygon style="fill:#A66957;" points="226.507,219.931 207.285,250.773 234.218,267.931 252.353,235.352 							"/>
							<g>
								<path style="fill:#92CDFE;" d="M295.282,174.679l-0.003,0c0.832-2.225,0.808-3.679,0.501-4.857
									c-0.722-2.768-3.625-1.94-3.625-1.94s4.175-6.288,3.556-9.18c-0.89-4.152-4.406-2.151-4.406-2.151s1.877-2.05,1.737-4.225
									c-0.102-1.591-3.163-3.756-11.466,2.57c-8.303,6.326-21.548,17.99-30.642,27.677c-9.094,9.687-26.095,38.945-26.095,38.945
									l25.65,18.286c0,0,5.338-9.193,12.455-19.72c7.117-10.527,4.596-3.707,17.792-15.272
									c13.196-11.565,17.347-22.24,17.446-26.332C298.28,174.389,295.282,174.679,295.282,174.679z"/>
								<g>
									<g>
										<path style="fill:none;stroke:#16004D;stroke-linecap:round;stroke-miterlimit:10;" d="M292.939,166.63
											c-2.858,4.733-7.506,10.381-12.204,14.905"/>
										<path style="fill:none;stroke:#16004D;stroke-linecap:round;stroke-miterlimit:10;" d="M295.351,174.499
											c-1.084,3.006-3.778,7.462-9.624,14.697"/>
										<path style="fill:none;stroke:#16004D;stroke-linecap:round;stroke-miterlimit:10;" d="M291.569,156.174
											c-1.931,2.831-6.233,7.572-15.529,16.514"/>
									</g>
									<g>
										
											<line style="fill:none;stroke:#16004D;stroke-linecap:round;stroke-miterlimit:10;" x1="250.488" y1="239.804" x2="224.838" y2="221.518"/>
										
											<line style="fill:none;stroke:#16004D;stroke-linecap:round;stroke-miterlimit:10;" x1="254.374" y1="233.893" x2="228.723" y2="215.607"/>
									</g>
								</g>
							</g>
						</g>
						<g>
							<path style="fill:#FFFFFF;" d="M172.643,281.831l34.642-42.027l40.941,21.014c0,0-14.009,70.86-42.679,86.239
								c-21.157,11.35-49.195,0.584-48.217-43.398c0.282-12.677,3.378-26.548,8.709-40.098L172.643,281.831z"/>
							<path style="fill:none;stroke:#16004D;stroke-linecap:round;stroke-miterlimit:10;" d="M172.643,281.831l34.642-42.027
								l40.941,21.014c0,0-14.009,70.86-42.679,86.239c-21.157,11.35-49.195,0.584-48.217-43.398
								c0.282-12.677,3.378-26.548,8.709-40.098"/>
							
								<line style="fill:none;stroke:#16004D;stroke-linecap:round;stroke-miterlimit:10;" x1="197.581" y1="251.577" x2="244.466" y2="276.393"/>
						</g>
					</g>
				</g>
			</g>
			<g>
				<path style="fill:#6FBBEF;" d="M151.894,347.634h-33.086l-12.586,42.664c-0.714,2.421,1.1,4.847,3.624,4.847h17.946h15.118
					h17.946c2.524,0,4.338-2.427,3.624-4.847L151.894,347.634z"/>
				<g>
					<g>
						<g>
							<path style="fill:#50B97A;" d="M135.979,216.313c-0.065-0.042-13.686,9.95-11.95,23.344
								c1.965,15.167,11.589,19.801,11.589,19.801h0.723c0,0,9.623-4.634,11.589-19.801
								C149.665,226.263,136.044,216.271,135.979,216.313z"/>
							<path style="fill:#50B97A;" d="M83.029,262.019c-0.071,0.032,0.897,16.897,13.078,22.732
								c13.793,6.607,22.918,1.057,22.918,1.057l0.394-0.607c0,0,1.351-10.595-10.302-20.5
								C98.825,255.955,83.029,261.942,83.029,262.019z"/>
							<path style="fill:#50B97A;" d="M182.24,245.336c-0.005-0.077-16.145-5.065-25.869,4.309c-11.011,10.614-9,21.104-9,21.104
								l0.431,0.581c0,0,9.455,4.969,22.808-2.488C182.402,262.256,182.313,245.363,182.24,245.336z"/>
						</g>
						<g>
							
								<line style="fill:none;stroke:#1E4F1B;stroke-linecap:round;stroke-miterlimit:10;" x1="135.979" y1="380.43" x2="135.979" y2="243.146"/>
							<g>
								
									<line style="fill:none;stroke:#1E4F1B;stroke-linecap:round;stroke-miterlimit:10;" x1="135.727" y1="296.323" x2="93.417" y2="268.859"/>
								
									<line style="fill:none;stroke:#1E4F1B;stroke-linecap:round;stroke-miterlimit:10;" x1="92.436" y1="279.146" x2="102.31" y2="274.631"/>
								
									<line style="fill:none;stroke:#1E4F1B;stroke-linecap:round;stroke-miterlimit:10;" x1="112.106" y1="272.213" x2="112.106" y2="280.99"/>
							</g>
							<g>
								
									<line style="fill:none;stroke:#1E4F1B;stroke-linecap:round;stroke-miterlimit:10;" x1="136.028" y1="279.146" x2="172.151" y2="253.687"/>
								
									<line style="fill:none;stroke:#1E4F1B;stroke-linecap:round;stroke-miterlimit:10;" x1="156.059" y1="265.029" x2="167.572" y2="267.164"/>
							</g>
						</g>
					</g>
					<g>
						<g>
							<path style="fill:#FFFFFF;stroke:#0F110E;stroke-miterlimit:10;" d="M187.749,420.642H77.185
								c-4.018,0-7.275-3.257-7.275-7.275v-9.908c0-4.018,3.257-7.275,7.275-7.275h110.564c4.018,0,7.275,3.257,7.275,7.275v9.908
								C195.024,417.385,191.767,420.642,187.749,420.642z"/>
							<g>
								<rect x="86.417" y="396.184" style="fill:#2E4ECC;stroke:#0F110E;stroke-miterlimit:10;" width="16.941" height="24.458"/>
								<rect x="161.24" y="396.184" style="fill:#2E4ECC;stroke:#0F110E;stroke-miterlimit:10;" width="16.941" height="24.458"/>
							</g>
						</g>
						<g>
							<path style="fill:#2E4ECC;stroke:#0F110E;stroke-miterlimit:10;" d="M210.801,425.123H55.97
								c-1.237,0-2.241-1.003-2.241-2.241l0,0c0-1.237,1.003-2.241,2.241-2.241h154.831c1.237,0,2.241,1.003,2.241,2.241l0,0
								C213.041,424.12,212.038,425.123,210.801,425.123z"/>
							<path style="fill:#2E4ECC;stroke:#0F110E;stroke-miterlimit:10;" d="M210.801,446.123H55.97
								c-1.237,0-2.241-1.003-2.241-2.241l0,0c0-1.237,1.003-2.241,2.241-2.241h154.831c1.237,0,2.241,1.003,2.241,2.241l0,0
								C213.041,445.12,212.038,446.123,210.801,446.123z"/>
							<path style="fill:#FFFFFF;stroke:#0F110E;stroke-linecap:round;stroke-linejoin:round;stroke-miterlimit:10;" d="
								M209.788,422.994H56.25c0,0,4.235,4.858,0.76,20.888h63.24h25.538h63.24C205.553,427.852,209.788,422.994,209.788,422.994z"
								/>
							<g>
								
									<line style="fill:none;stroke:#92CDFE;stroke-linecap:round;stroke-linejoin:round;stroke-miterlimit:10;" x1="61.657" y1="426.809" x2="203.702" y2="426.809"/>
								
									<line style="fill:none;stroke:#92CDFE;stroke-linecap:round;stroke-linejoin:round;stroke-miterlimit:10;" x1="63.829" y1="430.338" x2="199.612" y2="430.338"/>
								
									<line style="fill:none;stroke:#92CDFE;stroke-linecap:round;stroke-linejoin:round;stroke-miterlimit:10;" x1="61.657" y1="433.867" x2="203.702" y2="433.867"/>
								
									<line style="fill:none;stroke:#92CDFE;stroke-linecap:round;stroke-linejoin:round;stroke-miterlimit:10;" x1="62.526" y1="437.397" x2="202.766" y2="437.397"/>
								
									<line style="fill:none;stroke:#92CDFE;stroke-linecap:round;stroke-linejoin:round;stroke-miterlimit:10;" x1="60.571" y1="440.926" x2="203.702" y2="440.926"/>
							</g>
							<g>
								<polygon style="fill:#EB3341;" points="79.385,433.439 90.462,433.439 86.878,439.27 83.702,436.354 77.105,439.27 								
									"/>
								<polygon style="fill:#50B97A;" points="103.168,429.638 114.245,429.638 110.661,435.469 107.485,432.553 100.888,435.469 
																	"/>
							</g>
						</g>
					</g>
					<g>
						<g>
							<g>
								<path style="fill:#16004D;" d="M404.404,404.388h-29.693c-1.844,0-3.339-1.495-3.339-3.339v-0.379
									c0-1.844,1.495-3.339,3.339-3.339h29.693c1.844,0,3.339,1.495,3.339,3.339v0.379
									C407.744,402.892,406.249,404.388,404.404,404.388z"/>
								<rect x="381.79" y="401.634" style="fill:#16004D;" width="15.535" height="11.705"/>
							</g>
							<path style="fill:#FFFFFF;stroke:#16004D;stroke-miterlimit:10;" d="M440.863,375.585
								c-2.066-5.049-23.084-35.653-23.084-35.653s-12.885,0.085-10.036,9.031c2.849,8.945,9.309,26.336,7.503,37.007
								c-1.136,6.71-4.121,19.176-6.6,23.926l-47.88,0.115v12.164h81.703C442.47,422.174,442.524,379.644,440.863,375.585z"/>
							<g>
								<g>
									<path style="fill:#6FBBEF;" d="M414.431,319.265l-4.261-2.148c-1.053-0.531-1.476-1.814-0.945-2.867l3.528-6.998
										c0.531-1.053,1.814-1.476,2.867-0.945l4.261,2.148c1.053,0.531,1.476,1.814,0.945,2.867l-3.528,6.998
										C416.767,319.373,415.484,319.796,414.431,319.265z"/>
									<path style="fill:#16004D;" d="M410.621,330.356l-7.101-3.58c-1.293-0.652-1.813-2.229-1.161-3.522l5.595-11.097
										c0.652-1.293,2.229-1.813,3.522-1.161l7.101,3.58c1.293,0.652,1.813,2.229,1.161,3.522l-5.595,11.097
										C413.49,330.488,411.914,331.008,410.621,330.356z"/>
									<path style="fill:#16004D;" d="M386.352,379.035l-7.539-3.801c-1.823-0.919-2.556-3.142-1.636-4.965l2.354-4.67
										c0.919-1.823,3.142-2.556,4.965-1.637l7.539,3.801c1.823,0.919,2.555,3.142,1.636,4.965l-2.355,4.67
										C390.398,379.221,388.175,379.954,386.352,379.035z"/>
									<path style="fill:#FFFFFF;stroke:#16004D;stroke-miterlimit:10;" d="M392.175,375.802l-14.224-7.172
										c-2.297-1.158-3.22-3.959-2.062-6.256l21.275-42.197c1.158-2.297,3.959-3.22,6.256-2.062l14.224,7.172
										c2.297,1.158,3.22,3.959,2.062,6.256L398.43,373.74C397.272,376.037,394.472,376.96,392.175,375.802z"/>
								</g>
								<g>
									<path style="fill:#2E4ECC;" d="M421.742,348.814c-2.576,5.108-8.804,7.161-13.913,4.586
										c-5.108-2.575-7.161-8.804-4.586-13.913c2.576-5.108,8.804-7.161,13.913-4.586
										C422.264,337.477,424.317,343.706,421.742,348.814z"/>
									<path style="fill:none;stroke:#161522;stroke-miterlimit:10;" d="M418.384,347.121c-1.641,3.254-5.608,4.562-8.862,2.921
										c-3.254-1.641-4.562-5.608-2.921-8.862s5.608-4.562,8.862-2.921C418.717,339.9,420.025,343.867,418.384,347.121z"/>
								</g>
							</g>
						</g>
						<g>
							<path style="fill:#16004D;" d="M445.152,428.83h-85.724c-2.819,0-5.104-2.285-5.104-5.104v-0.578
								c0-2.819,2.285-5.104,5.104-5.104h85.724c2.819,0,5.104,2.285,5.104,5.104v0.578
								C450.257,426.544,447.971,428.83,445.152,428.83z"/>
							<path style="fill:#16004D;" d="M442.946,423.436h-23.672h-35.31h-23.672c0,0-11.934,13.196-13.311,23.524h36.984h35.31
								h36.984C454.88,436.633,442.946,423.436,442.946,423.436z"/>
						</g>
					</g>
				</g>
				<path style="opacity:0.3;fill:#FFFFFF;" d="M164.48,390.298l-17.637-59.788c-0.102-0.347-0.154-0.707-0.154-1.069V310.82
					h-22.674v18.622c0,0.362-0.052,0.722-0.154,1.069l-17.637,59.788c-0.714,2.421,1.1,4.847,3.624,4.847h17.946h15.118h17.946
					C163.38,395.145,165.194,392.719,164.48,390.298z"/>
				<path style="fill:none;stroke:#2E4ECC;stroke-miterlimit:10;" d="M164.48,390.298l-17.637-59.788
					c-0.102-0.347-0.154-0.707-0.154-1.069V310.82h-22.674v18.622c0,0.362-0.052,0.722-0.154,1.069l-17.637,59.788
					c-0.714,2.421,1.1,4.847,3.624,4.847h17.946h15.118h17.946C163.38,395.145,165.194,392.719,164.48,390.298z"/>
				<g>
					
						<line style="fill:none;stroke:#2E4ECC;stroke-linecap:round;stroke-miterlimit:10;" x1="144.016" y1="371.525" x2="158.244" y2="371.525"/>
					
						<line style="fill:none;stroke:#2E4ECC;stroke-linecap:round;stroke-miterlimit:10;" x1="140.595" y1="364.086" x2="156.649" y2="364.086"/>
					
						<line style="fill:none;stroke:#2E4ECC;stroke-linecap:round;stroke-miterlimit:10;" x1="142.496" y1="355.026" x2="153.602" y2="355.026"/>
				</g>
				<g>
					<g>
						<path style="opacity:0.4;fill:#FFFFFF;" d="M147.745,310.601h-24.788c-2.389,0-4.325-1.936-4.325-4.325v-0.197
							c0-2.389,1.936-4.325,4.325-4.325h24.788c2.389,0,4.325,1.936,4.325,4.325v0.197
							C152.07,308.664,150.134,310.601,147.745,310.601z"/>
					</g>
					<path style="fill:none;stroke:#2E4ECC;stroke-miterlimit:10;" d="M147.745,310.601h-24.788c-2.389,0-4.325-1.936-4.325-4.325
						v-0.197c0-2.389,1.936-4.325,4.325-4.325h24.788c2.389,0,4.325,1.936,4.325,4.325v0.197
						C152.07,308.664,150.134,310.601,147.745,310.601z"/>
				</g>
			</g>
			<g>
				<g>
					<path style="fill:#161522;" d="M462.289,446.013c-3.75,0-7.501,0-11.251,0c-10.115,0-20.229,0-30.344,0
						c-14.996,0-29.992,0-44.987,0c-18.296,0-36.591,0-54.886,0c-19.969,0-39.937,0-59.906,0c-20.294,0-40.588,0-60.881,0
						c-18.793,0-37.586,0-56.379,0c-15.938,0-31.876,0-47.815,0c-11.459,0-22.918,0-34.377,0c-5.413,0-10.836-0.095-16.249,0
						c-0.237,0.004-0.474,0-0.71,0c-1.609,0-1.611,2.5,0,2.5c3.75,0,7.5,0,11.251,0c10.115,0,20.229,0,30.344,0
						c14.996,0,29.991,0,44.987,0c18.295,0,36.591,0,54.886,0c19.969,0,39.937,0,59.906,0c20.294,0,40.588,0,60.882,0
						c18.793,0,37.586,0,56.379,0c15.938,0,31.876,0,47.815,0c11.459,0,22.918,0,34.377,0c5.413,0,10.836,0.095,16.249,0
						c0.237-0.004,0.474,0,0.71,0C463.897,448.513,463.9,446.013,462.289,446.013L462.289,446.013z"/>
				</g>
			</g>
		</g>
	</g>
</g>
</svg>
